<mxfile host="app.diagrams.net" agent="Mozilla/5.0 (Windows NT 10.0; Win64; x64) AppleWebKit/537.36 (KHTML, like Gecko) Chrome/135.0.0.0 Safari/537.36" version="26.2.14">
  <diagram name="Page-1" id="ZlQ87k2tcv8Lh5LsvTtW">
    <mxGraphModel dx="1426" dy="731" grid="1" gridSize="10" guides="1" tooltips="1" connect="1" arrows="1" fold="1" page="1" pageScale="1" pageWidth="827" pageHeight="1169" math="0" shadow="0">
      <root>
        <mxCell id="0" />
        <mxCell id="1" parent="0" />
        <mxCell id="wjA2pDyJvlbDw4qJnrl_-8" value="Input (x)" style="text;html=1;align=center;verticalAlign=middle;whiteSpace=wrap;rounded=0;" parent="1" vertex="1">
          <mxGeometry x="20" y="280" width="60" height="30" as="geometry" />
        </mxCell>
        <mxCell id="wjA2pDyJvlbDw4qJnrl_-14" value="∑ (sum)" style="ellipse;whiteSpace=wrap;html=1;aspect=fixed;" parent="1" vertex="1">
          <mxGeometry x="300" y="510" width="80" height="80" as="geometry" />
        </mxCell>
        <mxCell id="wjA2pDyJvlbDw4qJnrl_-15" value="x&lt;sub&gt;1&lt;/sub&gt;&amp;nbsp;" style="ellipse;whiteSpace=wrap;html=1;aspect=fixed;" parent="1" vertex="1">
          <mxGeometry x="10" y="330" width="80" height="80" as="geometry" />
        </mxCell>
        <mxCell id="wjA2pDyJvlbDw4qJnrl_-16" value="x&lt;sub&gt;2&lt;/sub&gt;" style="ellipse;whiteSpace=wrap;html=1;aspect=fixed;" parent="1" vertex="1">
          <mxGeometry x="10" y="510" width="80" height="80" as="geometry" />
        </mxCell>
        <mxCell id="wjA2pDyJvlbDw4qJnrl_-17" value="x&lt;sub&gt;3&lt;/sub&gt;" style="ellipse;whiteSpace=wrap;html=1;aspect=fixed;" parent="1" vertex="1">
          <mxGeometry x="10" y="680" width="80" height="80" as="geometry" />
        </mxCell>
        <mxCell id="wjA2pDyJvlbDw4qJnrl_-18" value="F" style="ellipse;whiteSpace=wrap;html=1;aspect=fixed;" parent="1" vertex="1">
          <mxGeometry x="580" y="520" width="80" height="80" as="geometry" />
        </mxCell>
        <mxCell id="wjA2pDyJvlbDw4qJnrl_-21" value="" style="endArrow=classic;html=1;rounded=0;flowAnimation=1;" parent="1" edge="1">
          <mxGeometry width="50" height="50" relative="1" as="geometry">
            <mxPoint x="100" y="390" as="sourcePoint" />
            <mxPoint x="280" y="520" as="targetPoint" />
          </mxGeometry>
        </mxCell>
        <mxCell id="wjA2pDyJvlbDw4qJnrl_-22" value="" style="endArrow=classic;html=1;rounded=0;flowAnimation=1;" parent="1" edge="1">
          <mxGeometry width="50" height="50" relative="1" as="geometry">
            <mxPoint x="100" y="560" as="sourcePoint" />
            <mxPoint x="280" y="560" as="targetPoint" />
          </mxGeometry>
        </mxCell>
        <mxCell id="wjA2pDyJvlbDw4qJnrl_-23" value="" style="endArrow=classic;html=1;rounded=0;flowAnimation=1;" parent="1" edge="1">
          <mxGeometry width="50" height="50" relative="1" as="geometry">
            <mxPoint x="110" y="710" as="sourcePoint" />
            <mxPoint x="280" y="600" as="targetPoint" />
          </mxGeometry>
        </mxCell>
        <mxCell id="wjA2pDyJvlbDw4qJnrl_-24" value="" style="endArrow=classic;html=1;rounded=0;flowAnimation=1;" parent="1" edge="1">
          <mxGeometry width="50" height="50" relative="1" as="geometry">
            <mxPoint x="400" y="560" as="sourcePoint" />
            <mxPoint x="560" y="560" as="targetPoint" />
          </mxGeometry>
        </mxCell>
        <mxCell id="wjA2pDyJvlbDw4qJnrl_-30" style="edgeStyle=orthogonalEdgeStyle;rounded=0;orthogonalLoop=1;jettySize=auto;html=1;exitX=0.5;exitY=1;exitDx=0;exitDy=0;" parent="1" source="wjA2pDyJvlbDw4qJnrl_-25" target="wjA2pDyJvlbDw4qJnrl_-29" edge="1">
          <mxGeometry relative="1" as="geometry" />
        </mxCell>
        <mxCell id="wjA2pDyJvlbDw4qJnrl_-25" value="Z" style="text;html=1;align=center;verticalAlign=middle;whiteSpace=wrap;rounded=0;" parent="1" vertex="1">
          <mxGeometry x="440" y="510" width="60" height="30" as="geometry" />
        </mxCell>
        <mxCell id="wjA2pDyJvlbDw4qJnrl_-26" value="" style="endArrow=classic;html=1;rounded=0;flowAnimation=1;" parent="1" edge="1">
          <mxGeometry width="50" height="50" relative="1" as="geometry">
            <mxPoint x="690" y="559.5" as="sourcePoint" />
            <mxPoint x="850" y="559.5" as="targetPoint" />
          </mxGeometry>
        </mxCell>
        <mxCell id="wjA2pDyJvlbDw4qJnrl_-27" value="Output" style="ellipse;whiteSpace=wrap;html=1;aspect=fixed;" parent="1" vertex="1">
          <mxGeometry x="890" y="520" width="80" height="80" as="geometry" />
        </mxCell>
        <mxCell id="wjA2pDyJvlbDw4qJnrl_-50" style="edgeStyle=orthogonalEdgeStyle;rounded=0;orthogonalLoop=1;jettySize=auto;html=1;exitX=0.5;exitY=0;exitDx=0;exitDy=0;entryX=0.5;entryY=1;entryDx=0;entryDy=0;" parent="1" source="wjA2pDyJvlbDw4qJnrl_-28" target="wjA2pDyJvlbDw4qJnrl_-43" edge="1">
          <mxGeometry relative="1" as="geometry" />
        </mxCell>
        <mxCell id="wjA2pDyJvlbDw4qJnrl_-28" value="Y" style="text;html=1;align=center;verticalAlign=middle;whiteSpace=wrap;rounded=0;" parent="1" vertex="1">
          <mxGeometry x="750" y="510" width="60" height="30" as="geometry" />
        </mxCell>
        <mxCell id="wjA2pDyJvlbDw4qJnrl_-29" value="" style="swimlane;startSize=0;" parent="1" vertex="1">
          <mxGeometry x="370" y="710" width="200" height="200" as="geometry" />
        </mxCell>
        <mxCell id="wjA2pDyJvlbDw4qJnrl_-32" value="&lt;span style=&quot;text-wrap-mode: wrap;&quot;&gt;∑&lt;/span&gt;" style="text;html=1;align=center;verticalAlign=middle;resizable=0;points=[];autosize=1;strokeColor=none;fillColor=none;fontSize=35;" parent="wjA2pDyJvlbDw4qJnrl_-29" vertex="1">
          <mxGeometry x="40" y="65" width="50" height="60" as="geometry" />
        </mxCell>
        <mxCell id="wjA2pDyJvlbDw4qJnrl_-33" value="(n) number of input" style="text;html=1;align=center;verticalAlign=middle;resizable=0;points=[];autosize=1;strokeColor=none;fillColor=none;" parent="wjA2pDyJvlbDw4qJnrl_-29" vertex="1">
          <mxGeometry x="10" y="50" width="120" height="30" as="geometry" />
        </mxCell>
        <mxCell id="wjA2pDyJvlbDw4qJnrl_-34" value="i" style="text;html=1;align=center;verticalAlign=middle;resizable=0;points=[];autosize=1;strokeColor=none;fillColor=none;" parent="wjA2pDyJvlbDw4qJnrl_-29" vertex="1">
          <mxGeometry x="54" y="120" width="30" height="30" as="geometry" />
        </mxCell>
        <mxCell id="wjA2pDyJvlbDw4qJnrl_-35" value="x&lt;sub&gt;i&lt;/sub&gt;" style="text;html=1;align=center;verticalAlign=middle;resizable=0;points=[];autosize=1;strokeColor=none;fillColor=none;" parent="wjA2pDyJvlbDw4qJnrl_-29" vertex="1">
          <mxGeometry x="90" y="80" width="30" height="30" as="geometry" />
        </mxCell>
        <mxCell id="wjA2pDyJvlbDw4qJnrl_-42" value="&lt;sub&gt;&lt;span style=&quot;font-size: 12px;&quot;&gt;W&lt;/span&gt;i&lt;/sub&gt;" style="text;html=1;align=center;verticalAlign=middle;resizable=0;points=[];autosize=1;strokeColor=none;fillColor=none;" parent="wjA2pDyJvlbDw4qJnrl_-29" vertex="1">
          <mxGeometry x="97" y="78" width="40" height="30" as="geometry" />
        </mxCell>
        <mxCell id="wjA2pDyJvlbDw4qJnrl_-43" value="" style="swimlane;startSize=0;" parent="1" vertex="1">
          <mxGeometry x="637.5" y="210" width="285" height="200" as="geometry" />
        </mxCell>
        <mxCell id="wjA2pDyJvlbDw4qJnrl_-51" value="1 / (1 + EXP(-z))" style="text;html=1;align=center;verticalAlign=middle;resizable=0;points=[];autosize=1;strokeColor=none;fillColor=none;fontSize=24;" parent="wjA2pDyJvlbDw4qJnrl_-43" vertex="1">
          <mxGeometry x="40" y="80" width="200" height="40" as="geometry" />
        </mxCell>
        <mxCell id="wjA2pDyJvlbDw4qJnrl_-52" value="w1" style="text;html=1;align=center;verticalAlign=middle;whiteSpace=wrap;rounded=0;" parent="1" vertex="1">
          <mxGeometry x="160" y="390" width="60" height="30" as="geometry" />
        </mxCell>
        <mxCell id="wjA2pDyJvlbDw4qJnrl_-53" value="w2" style="text;html=1;align=center;verticalAlign=middle;whiteSpace=wrap;rounded=0;" parent="1" vertex="1">
          <mxGeometry x="160" y="530" width="60" height="30" as="geometry" />
        </mxCell>
        <mxCell id="wjA2pDyJvlbDw4qJnrl_-54" value="w1" style="text;html=1;align=center;verticalAlign=middle;whiteSpace=wrap;rounded=0;" parent="1" vertex="1">
          <mxGeometry x="160" y="620" width="60" height="30" as="geometry" />
        </mxCell>
        <mxCell id="GhN1fHlOjE7OFuoDSOqS-1" value="bias (b)" style="ellipse;whiteSpace=wrap;html=1;aspect=fixed;" vertex="1" parent="1">
          <mxGeometry x="180" y="840" width="80" height="80" as="geometry" />
        </mxCell>
        <mxCell id="GhN1fHlOjE7OFuoDSOqS-2" value="" style="endArrow=classic;html=1;rounded=0;flowAnimation=1;" edge="1" parent="1">
          <mxGeometry width="50" height="50" relative="1" as="geometry">
            <mxPoint x="230" y="820" as="sourcePoint" />
            <mxPoint x="330" y="610" as="targetPoint" />
          </mxGeometry>
        </mxCell>
        <mxCell id="GhN1fHlOjE7OFuoDSOqS-4" value="+ b" style="text;html=1;align=center;verticalAlign=middle;whiteSpace=wrap;rounded=0;" vertex="1" parent="1">
          <mxGeometry x="577.5" y="790" width="60" height="30" as="geometry" />
        </mxCell>
      </root>
    </mxGraphModel>
  </diagram>
</mxfile>
